<svg xmlns="http://www.w3.org/2000/svg" viewBox="0 0 680 680">
<rect width="680" height="680" rx="120" fill="#1E40AF"/>
<circle cx="340" cy="340" r="310" fill="#2563EB" opacity="0.4"/>
<circle cx="340" cy="310" r="215" fill="none" stroke="white" stroke-width="2" opacity="0.3"/>
<circle cx="340" cy="310" r="205" fill="none" stroke="white" stroke-width="2" opacity="0.2"/>
<circle cx="340" cy="310" r="195" fill="#1D4ED8" stroke="white" stroke-width="6"/>
<ellipse cx="340" cy="310" rx="195" ry="68" fill="none" stroke="white" stroke-width="3" opacity="0.5"/>
<ellipse cx="340" cy="310" rx="195" ry="135" fill="none" stroke="white" stroke-width="2" opacity="0.3"/>
<ellipse cx="340" cy="310" rx="68" ry="195" fill="none" stroke="white" stroke-width="2" opacity="0.3"/>
<ellipse cx="340" cy="310" rx="135" ry="195" fill="none" stroke="white" stroke-width="2" opacity="0.3"/>
<line x1="145" y1="310" x2="535" y2="310" stroke="white" stroke-width="3" opacity="0.5"/>
<line x1="340" y1="115" x2="340" y2="505" stroke="white" stroke-width="3" opacity="0.5"/>
<path d="M230 268 Q258 250 295 263 Q318 252 330 275 Q340 290 315 306 Q290 317 265 306 Q243 297 230 272Z" fill="white" opacity="0.25"/>
<path d="M355 245 Q388 233 418 250 Q440 267 428 290 Q405 306 377 296 Q354 284 352 262Z" fill="white" opacity="0.25"/>
<path d="M268 378 Q302 365 335 376 Q346 393 330 407 Q302 415 278 402Z" fill="white" opacity="0.2"/>
<ellipse cx="340" cy="462" rx="32" ry="9" fill="#1E3A8A" opacity="0.4"/>
<path d="M340 215 C306 215 278 243 278 277 C278 330 340 448 340 448 C340 448 402 330 402 277 C402 243 374 215 340 215Z" fill="#FBBF24"/>
<path d="M340 215 C306 215 278 243 278 277 C278 293 283 312 292 328 C292 328 305 248 340 232 C352 227 364 221 374 216 C364 215 352 215 340 215Z" fill="white" opacity="0.25"/>
<circle cx="340" cy="277" r="26" fill="#1E40AF"/>
<circle cx="340" cy="277" r="12" fill="#FBBF24"/>
<circle cx="185" cy="265" r="9" fill="#FCD34D" stroke="white" stroke-width="2"/>
<circle cx="495" cy="248" r="9" fill="#34D399" stroke="white" stroke-width="2"/>
<circle cx="162" cy="385" r="8" fill="#F87171" stroke="white" stroke-width="2"/>
<circle cx="515" cy="390" r="8" fill="#A78BFA" stroke="white" stroke-width="2"/>
<line x1="191" y1="270" x2="295" y2="295" stroke="#FCD34D" stroke-width="2" stroke-dasharray="5,4" opacity="0.7"/>
<line x1="489" y1="253" x2="388" y2="290" stroke="#34D399" stroke-width="2" stroke-dasharray="5,4" opacity="0.7"/>
<line x1="168" y1="389" x2="290" y2="350" stroke="#F87171" stroke-width="2" stroke-dasharray="5,4" opacity="0.7"/>
<line x1="509" y1="394" x2="388" y2="355" stroke="#A78BFA" stroke-width="2" stroke-dasharray="5,4" opacity="0.7"/>
<circle cx="290" cy="200" r="5" fill="white" opacity="0.6"/>
<circle cx="395" cy="195" r="4" fill="#FBBF24" opacity="0.8"/>
</svg>
